<svg width="800px" height="800px" viewBox="0 0 512 512" enable-background="new 0 0 512 512" version="1.1" xml:space="preserve" xmlns="http://www.w3.org/2000/svg" xmlns:xlink="http://www.w3.org/1999/xlink">

<g id="_x30_1"/>

<g id="_x30_2"/>

<g id="_x30_3"/>

<g id="_x30_4"/>

<g id="_x30_5"/>

<g id="_x30_6"/>

<g id="_x30_7"/>

<g id="_x30_8"/>

<g id="_x30_9"/>

<g id="_x31_0"/>

<g id="_x31_1"/>

<g id="_x31_2"/>

<g id="_x31_3"/>

<g id="_x31_4"/>

<g id="_x31_5"/>

<g id="_x31_6"/>

<g id="_x31_7"/>

<g id="_x31_8"/>

<g id="_x31_9"/>

<g id="_x32_0"/>

<g id="_x32_1"/>

<g id="_x32_2"/>

<g id="_x32_3"/>

<g id="_x32_4"/>

<g id="_x32_5"/>

<g id="_x32_6"/>

<g id="_x32_7"/>

<g id="_x32_8"/>

<g id="_x32_9"/>

<g id="_x33_0"/>

<g id="_x33_1"/>

<g id="_x33_2"/>

<g id="_x33_3"/>

<g id="_x33_4"/>

<g id="_x33_5"/>

<g id="_x33_6"/>

<g id="_x33_7"/>

<g id="_x33_8"/>

<g id="_x33_9"/>

<g id="_x34_0"/>

<g id="_x34_1"/>

<g id="_x34_2"/>

<g id="_x34_3"/>

<g id="_x34_4"/>

<g id="_x34_5"/>

<g id="_x34_6"/>

<g id="_x34_7"/>

<g id="_x34_8"/>

<g id="_x34_9"/>

<g id="_x35_0">

<g>

<path clip-rule="evenodd" d="    M-1339.803,24.856c88.705,5.973,79.16,346.885,58.384,418.989c-5.572,19.29-9.773,37.952-24.748,49.155    c-20.262-25.521-58.699-22.806-73.216,0c-15.003-11.203-18.347-30.15-24.749-49.155    C-1426.565,377.343-1427.851,18.94-1339.803,24.856L-1339.803,24.856z" fill="#F5D8B3" fill-rule="evenodd" stroke="#6C6CAA" stroke-linecap="round" stroke-linejoin="round" stroke-miterlimit="10" stroke-width="20.1478"/>

<line fill="none" stroke="#6C6CAA" stroke-linecap="round" stroke-linejoin="round" stroke-miterlimit="10" stroke-width="20.1478" x1="-1339.803" x2="-1339.803" y1="36.43" y2="410.951"/>

<line fill="none" stroke="#6C6CAA" stroke-linecap="round" stroke-linejoin="round" stroke-miterlimit="10" stroke-width="20.1478" x1="-1339.803" x2="-1339.803" y1="441.102" y2="440.872"/>

<path d="    M-1403.045,127.996c3.515,93.452,145.432,101.167,130.257,264.122C-1327.143,231.993-1419.02,291.121-1403.045,127.996    L-1403.045,127.996z" fill="none" stroke="#6C6CAA" stroke-linecap="round" stroke-linejoin="round" stroke-miterlimit="10" stroke-width="20.1478"/>

</g>

<g>

<path clip-rule="evenodd" d="    M-900.283,186.179l-0.229,17.318l312.382,0.057c-4.686,24.949-55.813,75.59-87.791,90.022    c-13.945-1.172-28.406-3.229-43.408-6.173c-54.24-13.289-103.366-14.404-146.061-0.286    c-45.639,12.031-82.589,14.232-106.566,1.715c-4.629-2.344-9.23-4.201-13.86-5.63    C-1029.568,241.735-967.783,186.122-900.283,186.179L-900.283,186.179z" fill="#F9E5D3" fill-rule="evenodd" stroke="#6C6CAA" stroke-linecap="round" stroke-linejoin="round" stroke-miterlimit="10" stroke-width="20.1764"/>

<line fill="none" stroke="#6C6CAA" stroke-linecap="round" stroke-linejoin="round" stroke-miterlimit="10" stroke-width="20.1764" x1="-608.533" x2="-926.688" y1="238.02" y2="238.02"/>

<path d="    M-570.01,283.431c-42.752,13.231-92.105,15.261-149.318,3.973c-54.24-13.289-103.366-14.404-146.061-0.286    c-45.639,12.031-82.589,14.232-106.566,1.715c-24.348-12.46-48.696-10.975-73.044-3.229" fill="none" stroke="#6C6CAA" stroke-linecap="round" stroke-linejoin="round" stroke-miterlimit="10" stroke-width="20.1764"/>

<path d="    M-626.564,337.758c-36.266,3.602-75.275,7.06-115.426-12.745c-31.693-12.118-62.9-20.634-102.537-0.258    c-68.93,26.778-112.682,9.803-126.685,5.83c-14.003-4.001-32.807-19.319-56.098-6.459" fill="none" stroke="#6C6CAA" stroke-linecap="round" stroke-linejoin="round" stroke-miterlimit="10" stroke-width="20.1764"/>

<line fill="none" stroke="#6C6CAA" stroke-linecap="round" stroke-linejoin="round" stroke-miterlimit="10" stroke-width="20.1764" x1="-600.531" x2="-586.928" y1="333.214" y2="330.385"/>

<polygon clip-rule="evenodd" fill="#DCF2FF" fill-rule="evenodd" points="    -848.757,157 -849.1,203.526 -714.842,203.668 -792.059,157.085   " stroke="#6C6CAA" stroke-linecap="round" stroke-linejoin="round" stroke-miterlimit="10" stroke-width="20.1764"/>

<line fill="none" stroke="#6C6CAA" stroke-linecap="round" stroke-linejoin="round" stroke-miterlimit="10" stroke-width="20.1764" x1="-812.149" x2="-812.063" y1="157.057" y2="203.783"/>

<line fill="none" stroke="#6C6CAA" stroke-linecap="round" stroke-linejoin="round" stroke-miterlimit="10" stroke-width="20.1764" x1="-958.467" x2="-996.732" y1="236.219" y2="236.219"/>

</g>

<g>

<path clip-rule="evenodd" d="    M-1899.051,83.536v353.915c-1.714,50.813-78.103,62.358-100.622,0l-79.274-333.282    C-2082.52,32.98-1903.537,20.206-1899.051,83.536L-1899.051,83.536z" fill="#B0F0A8" fill-rule="evenodd" stroke="#6C6CAA" stroke-linecap="round" stroke-linejoin="round" stroke-miterlimit="10" stroke-width="20.1764"/>

<path d="    M-2039.31,270.811c40.237-39.724,86.619-48.612,140.259-21.234" fill="none" stroke="#6C6CAA" stroke-linecap="round" stroke-linejoin="round" stroke-miterlimit="10" stroke-width="20.1764"/>

<path d="    M-2019.22,355.317c37.637-62.645,78.074-58.015,120.169-13.317" fill="none" stroke="#6C6CAA" stroke-linecap="round" stroke-linejoin="round" stroke-miterlimit="10" stroke-width="20.1764"/>

<line fill="none" stroke="#6C6CAA" stroke-linecap="round" stroke-linejoin="round" stroke-miterlimit="10" stroke-width="20.1764" x1="-2041.596" x2="-2016.448" y1="103.655" y2="209.31"/>

<line fill="none" stroke="#6C6CAA" stroke-linecap="round" stroke-linejoin="round" stroke-miterlimit="10" stroke-width="20.1764" x1="-1989.099" x2="-1977.868" y1="85.851" y2="204.28"/>

<line fill="none" stroke="#6C6CAA" stroke-linecap="round" stroke-linejoin="round" stroke-miterlimit="10" stroke-width="20.1764" x1="-1938.631" x2="-1937.63" y1="128.833" y2="199.25"/>

<line fill="none" stroke="#6C6CAA" stroke-linecap="round" stroke-linejoin="round" stroke-miterlimit="10" stroke-width="20.1764" x1="-1939.288" x2="-1939.288" y1="95.968" y2="95.71"/>

<path clip-rule="evenodd" d="    M-1837.237,83.536v353.915c1.715,50.813,78.103,62.358,100.622,0l79.274-333.282C-1653.768,32.98-1832.75,20.206-1837.237,83.536    L-1837.237,83.536z" fill="#B0F0A8" fill-rule="evenodd" stroke="#6C6CAA" stroke-linecap="round" stroke-linejoin="round" stroke-miterlimit="10" stroke-width="20.1764"/>

<path d="    M-1696.978,270.811c-40.237-39.724-86.619-48.612-140.259-21.234" fill="none" stroke="#6C6CAA" stroke-linecap="round" stroke-linejoin="round" stroke-miterlimit="10" stroke-width="20.1764"/>

<path d="    M-1717.068,355.317c-37.637-62.645-78.074-58.015-120.169-13.317" fill="none" stroke="#6C6CAA" stroke-linecap="round" stroke-linejoin="round" stroke-miterlimit="10" stroke-width="20.1764"/>

<line fill="none" stroke="#6C6CAA" stroke-linecap="round" stroke-linejoin="round" stroke-miterlimit="10" stroke-width="20.1764" x1="-1694.692" x2="-1719.84" y1="103.655" y2="209.31"/>

<line fill="none" stroke="#6C6CAA" stroke-linecap="round" stroke-linejoin="round" stroke-miterlimit="10" stroke-width="20.1764" x1="-1747.189" x2="-1758.419" y1="85.851" y2="204.28"/>

<line fill="none" stroke="#6C6CAA" stroke-linecap="round" stroke-linejoin="round" stroke-miterlimit="10" stroke-width="20.1764" x1="-1797.657" x2="-1798.657" y1="128.833" y2="199.25"/>

<line fill="none" stroke="#6C6CAA" stroke-linecap="round" stroke-linejoin="round" stroke-miterlimit="10" stroke-width="20.1764" x1="-1797" x2="-1797" y1="95.968" y2="95.71"/>

</g>

<g>

<path clip-rule="evenodd" d="    M-508.257,229.961l105.452-35.151l40.18,22.605h263.658c67.5,0.657,90.162,79.477,20.89,89.45c0-0.314,0-0.628,0-0.942    c0-22.206-17.976-40.182-40.151-40.182c-22.205,0-40.181,17.976-40.181,40.182c0,0.628,0,1.257,0.029,1.886h-218.706    c0.029-0.629,0.029-1.258,0.029-1.886c0-22.206-17.976-40.182-40.18-40.182c-22.177,0-40.181,17.976-40.181,40.182    c0,0.171,0,0.314,0.028,0.485L-509,289.89L-508.257,229.961z" fill="#FDB7CA" fill-rule="evenodd" stroke="#6C6CAA" stroke-linecap="round" stroke-linejoin="round" stroke-miterlimit="10" stroke-width="20.1478"/>

<polygon clip-rule="evenodd" fill="#DCF2FF" fill-rule="evenodd" points="    -267.833,154 -208.82,217.416 -362.625,217.416 -402.805,194.81   " stroke="#6C6CAA" stroke-linecap="round" stroke-linejoin="round" stroke-miterlimit="10" stroke-width="20.1478"/>

<path clip-rule="evenodd" d="    M-417.236,346.104c22.146,0,40.18-18.062,40.18-40.181c0-22.12-18.033-40.182-40.18-40.182c-22.119,0-40.181,18.062-40.181,40.182    C-457.417,328.042-439.355,346.104-417.236,346.104L-417.236,346.104z" fill="#F9E5D3" fill-rule="evenodd" stroke="#6C6CAA" stroke-linecap="round" stroke-linejoin="round" stroke-miterlimit="10" stroke-width="20.1478"/>

<path clip-rule="evenodd" d="    M-118.229,346.104c22.119,0,40.151-18.062,40.151-40.181c0-22.12-18.032-40.182-40.151-40.182    c-22.147,0-40.181,18.062-40.181,40.182C-158.409,328.042-140.376,346.104-118.229,346.104L-118.229,346.104z" fill="#F9E5D3" fill-rule="evenodd" stroke="#6C6CAA" stroke-linecap="round" stroke-linejoin="round" stroke-miterlimit="10" stroke-width="20.1478"/>

<line fill="none" stroke="#6C6CAA" stroke-linecap="round" stroke-linejoin="round" stroke-miterlimit="10" stroke-width="20.1478" x1="-356.967" x2="-230.167" y1="258.797" y2="258.797"/>

<line fill="none" stroke="#6C6CAA" stroke-linecap="round" stroke-linejoin="round" stroke-miterlimit="10" stroke-width="20.1478" x1="-69.446" x2="-38.383" y1="254.454" y2="254.911"/>

<polyline fill="none" points="    -478.765,265.742 -501.342,265.456 -508.686,265.371   " stroke="#6C6CAA" stroke-linecap="round" stroke-linejoin="round" stroke-miterlimit="10" stroke-width="20.1478"/>

<line fill="none" stroke="#6C6CAA" stroke-linecap="round" stroke-linejoin="round" stroke-miterlimit="10" stroke-width="20.1478" x1="-312.814" x2="-285.723" y1="167.603" y2="217.416"/>

<line fill="none" stroke="#6C6CAA" stroke-linecap="round" stroke-linejoin="round" stroke-miterlimit="10" stroke-width="20.1478" x1="-189.615" x2="-189.615" y1="260.398" y2="260.14"/>

<line fill="none" stroke="#6C6CAA" stroke-linecap="round" stroke-linejoin="round" stroke-miterlimit="10" stroke-width="20.1478" x1="-118.229" x2="-118.229" y1="306.152" y2="305.923"/>

<line fill="none" stroke="#6C6CAA" stroke-linecap="round" stroke-linejoin="round" stroke-miterlimit="10" stroke-width="20.1478" x1="-417.236" x2="-417.236" y1="306.152" y2="305.923"/>

</g>

<g>

<path clip-rule="evenodd" d="    M87.998,168.416c-26.377,33.266-35.837,74.99-36.351,121.173v76.934h11.574c7.858,0,14.26,6.43,14.26,14.26v0.887h29.264    c0.657-21.52,18.289-38.753,39.98-38.753c21.662,0,39.322,17.233,39.951,38.753h132.687c0.629-21.52,18.289-38.753,39.951-38.753    c21.69,0,39.323,17.233,39.98,38.753h36.036v-0.887c0-7.83,6.431-14.26,14.261-14.26h11.574v-78.134    c2.143-39.981-6.173-79.991-26.635-119.973H87.998z" fill="#DBBEB9" fill-rule="evenodd" stroke="#6C6CAA" stroke-linecap="round" stroke-linejoin="round" stroke-miterlimit="10" stroke-width="20.1764"/>

<path clip-rule="evenodd" d="    M174.017,136.923h307.754c-11.889-18.891-31.722-31.179-63.015-33.923H235.802C209.139,105.201,187.763,115.317,174.017,136.923    L174.017,136.923z" fill="#F5D8B3" fill-rule="evenodd" stroke="#6C6CAA" stroke-linecap="round" stroke-linejoin="round" stroke-miterlimit="10" stroke-width="20.1764"/>

<path clip-rule="evenodd" d="    M106.573,227.459H159.1c7.458,0,13.546,6.116,13.546,13.575v21.348c0,7.459-6.088,13.547-13.546,13.547h-52.526    c-7.486,0-13.574-6.088-13.574-13.547v-21.348C92.999,233.575,99.087,227.459,106.573,227.459L106.573,227.459z" fill="#DCF2FF" fill-rule="evenodd" stroke="#6C6CAA" stroke-linecap="round" stroke-linejoin="round" stroke-miterlimit="10" stroke-width="20.1764"/>

<path clip-rule="evenodd" d="    M357.143,227.459h52.526c7.458,0,13.546,6.116,13.546,13.575v21.348c0,7.459-6.088,13.547-13.546,13.547h-52.526    c-7.487,0-13.574-6.088-13.574-13.547v-21.348C343.568,233.575,349.655,227.459,357.143,227.459L357.143,227.459z" fill="#DCF2FF" fill-rule="evenodd" stroke="#6C6CAA" stroke-linecap="round" stroke-linejoin="round" stroke-miterlimit="10" stroke-width="20.1764"/>

<path clip-rule="evenodd" d="    M235.63,227.459h52.526c7.487,0,13.574,6.116,13.574,13.575v21.348c0,7.459-6.087,13.547-13.574,13.547H235.63    c-7.458,0-13.545-6.088-13.545-13.547v-21.348C222.085,233.575,228.172,227.459,235.63,227.459L235.63,227.459z" fill="#DCF2FF" fill-rule="evenodd" stroke="#6C6CAA" stroke-linecap="round" stroke-linejoin="round" stroke-miterlimit="10" stroke-width="20.1764"/>

<line fill="none" stroke="#6C6CAA" stroke-linecap="round" stroke-linejoin="round" stroke-miterlimit="10" stroke-width="20.1764" x1="69.251" x2="379.634" y1="199.938" y2="199.938"/>

<line fill="none" stroke="#6C6CAA" stroke-linecap="round" stroke-linejoin="round" stroke-miterlimit="10" stroke-width="20.1764" x1="338.796" x2="358.172" y1="314.138" y2="314.138"/>

<path clip-rule="evenodd" d="    M472.769,366.522h-23.177c-7.83,0-14.261,6.43-14.261,14.26v1.772c0,7.859,6.431,14.261,14.261,14.261h23.177    c7.83,0,14.231-6.401,14.231-14.261v-1.772C487,372.952,480.599,366.522,472.769,366.522L472.769,366.522z" fill="#F5D8B3" fill-rule="evenodd" stroke="#6C6CAA" stroke-linecap="round" stroke-linejoin="round" stroke-miterlimit="10" stroke-width="20.1764"/>

<path clip-rule="evenodd" d="    M63.222,366.522H40.073c-7.859,0-14.26,6.43-14.26,14.26v1.772c0,7.859,6.4,14.261,14.26,14.261h23.148    c7.858,0,14.26-6.401,14.26-14.261v-1.772C77.481,372.952,71.08,366.522,63.222,366.522L63.222,366.522z" fill="#F5D8B3" fill-rule="evenodd" stroke="#6C6CAA" stroke-linecap="round" stroke-linejoin="round" stroke-miterlimit="10" stroke-width="20.1764"/>

<path d="    M454.507,283.53c2.115,0,4.144,0.429,6.059,1.2v46.068c-1.915,0.771-3.943,1.2-6.059,1.2c-10.717,0-19.376-10.859-19.376-24.234    S443.79,283.53,454.507,283.53L454.507,283.53z" fill="none" stroke="#6C6CAA" stroke-linecap="round" stroke-linejoin="round" stroke-miterlimit="10" stroke-width="20.1764"/>

<path clip-rule="evenodd" d="    M146.726,422.879c22.004,0,39.98-17.976,39.98-39.981c0-22.034-17.977-39.981-39.98-39.981c-22.033,0-39.98,17.947-39.98,39.981    C106.745,404.903,124.692,422.879,146.726,422.879L146.726,422.879z" fill="#F9E5D3" fill-rule="evenodd" stroke="#6C6CAA" stroke-linecap="round" stroke-linejoin="round" stroke-miterlimit="10" stroke-width="20.1764"/>

<path clip-rule="evenodd" d="    M359.314,422.879c22.033,0,39.98-17.976,39.98-39.981c0-22.034-17.947-39.981-39.98-39.981c-22.005,0-39.979,17.947-39.979,39.981    C319.335,404.903,337.31,422.879,359.314,422.879L359.314,422.879z" fill="#F9E5D3" fill-rule="evenodd" stroke="#6C6CAA" stroke-linecap="round" stroke-linejoin="round" stroke-miterlimit="10" stroke-width="20.1764"/>

<line fill="none" stroke="#6C6CAA" stroke-linecap="round" stroke-linejoin="round" stroke-miterlimit="10" stroke-width="20.1764" x1="146.726" x2="146.726" y1="382.897" y2="382.641"/>

<line fill="none" stroke="#6C6CAA" stroke-linecap="round" stroke-linejoin="round" stroke-miterlimit="10" stroke-width="20.1764" x1="359.314" x2="359.314" y1="383.126" y2="382.897"/>

<line fill="none" stroke="#6C6CAA" stroke-linecap="round" stroke-linejoin="round" stroke-miterlimit="10" stroke-width="20.1764" x1="258.836" x2="258.836" y1="111.488" y2="168.416"/>

<line fill="none" stroke="#6C6CAA" stroke-linecap="round" stroke-linejoin="round" stroke-miterlimit="10" stroke-width="20.1764" x1="394.522" x2="394.522" y1="109.059" y2="168.416"/>

</g>

<g>

<polygon clip-rule="evenodd" fill="#F9E5D3" fill-rule="evenodd" points="    -1782.93,750.074 -1710,750.074 -1710,787.34 -1774.813,787.34 -1774.813,764.649 -1782.93,764.649   " stroke="#6C6CAA" stroke-linecap="round" stroke-linejoin="round" stroke-miterlimit="10" stroke-width="20.1764"/>

<path clip-rule="evenodd" d="    M-2033.214,764.649h258.4v63.987c-19.147,22.691-44.324,31.322-76.417,23.777l-51.583-55.356l-55.068,60.758    c-28.321,0.743-53.469-8.059-75.332-26.749V764.649z" fill="#DCF2FF" fill-rule="evenodd" stroke="#6C6CAA" stroke-linecap="round" stroke-linejoin="round" stroke-miterlimit="10" stroke-width="20.1764"/>

<polygon clip-rule="evenodd" fill="#FDB7CA" fill-rule="evenodd" points="    -1903.613,874.019 -1862.147,840.696 -1902.813,797.057 -1946.595,845.383   " stroke="#6C6CAA" stroke-linecap="round" stroke-linejoin="round" stroke-miterlimit="10" stroke-width="20.1764"/>

<path d="    M-1945.737,900.339c-0.943,17.919,3.229,29.607,25.12,30.379h34.007c18.805-0.914,23.063-10.459,23.092-27.549" fill="none" stroke="#6C6CAA" stroke-linecap="round" stroke-linejoin="round" stroke-miterlimit="10" stroke-width="20.1764"/>

<rect clip-rule="evenodd" fill="#FDB7CA" fill-rule="evenodd" height="184.274" stroke="#6C6CAA" stroke-linecap="round" stroke-linejoin="round" stroke-miterlimit="10" stroke-width="20.1764" width="31.607" x="-1752.952" y="567"/>

<path clip-rule="evenodd" d="    M-1724.603,942.063V787.34h-30.778v157.153c-14.546,27.063-35.122,42.039-64.786,38.866    c-39.266-2.571-61.728-19.833-66.443-52.642h-34.007c8.03,49.184,51.211,85.907,102.08,83.964    C-1769.784,1012.796-1732.719,991.647-1724.603,942.063L-1724.603,942.063z" fill="#FDB7CA" fill-rule="evenodd" stroke="#6C6CAA" stroke-linecap="round" stroke-linejoin="round" stroke-miterlimit="10" stroke-width="20.1764"/>

<path clip-rule="evenodd" d="    M-1988.261,703.891h182.269c6.888,0,12.546,5.658,12.546,12.574l0,0c0,6.888-5.658,12.546-12.546,12.546h-182.269    c-6.916,0-12.545-5.658-12.545-12.546l0,0C-2000.806,709.549-1995.177,703.891-1988.261,703.891L-1988.261,703.891z" fill="#FDB7CA" fill-rule="evenodd" stroke="#6C6CAA" stroke-linecap="round" stroke-linejoin="round" stroke-miterlimit="10" stroke-width="20.1764"/>

<path d="    M-2026.726,764.649c-5.173-14.861-0.286-27.578,24.805-35.98l4.315-3.858" fill="none" stroke="#6C6CAA" stroke-linecap="round" stroke-linejoin="round" stroke-miterlimit="10" stroke-width="20.1764"/>

<line fill="none" stroke="#6C6CAA" stroke-linecap="round" stroke-linejoin="round" stroke-miterlimit="10" stroke-width="20.1764" x1="-1721.345" x2="-1752.952" y1="625.329" y2="625.329"/>

</g>

<g>

<path d="    M-1575.131,850.671c19.118-10.174,35.351-10.831,47.667,1.686c18.375,18.405,42.324,22.491,76.587,0    c21.091-12.031,51.012-16.347,69.816,0c28.663,22.463,51.039,22.949,80.018,0c22.262-16.918,47.81-13.432,68.071,3.401    c28.378,18.547,56.756,18.376,85.133-1.687c6.088-8.773,21.119-7.116,40.838,0" fill="none" stroke="#6C6CAA" stroke-linecap="round" stroke-linejoin="round" stroke-miterlimit="10" stroke-width="20.1764"/>

<path d="    M-1491.713,900.026c40.294-5.858,76.846-38.695,114.911-3.4c20.434,11.517,45.639,12.603,77.445-0.857    c30.436-14.946,56.955-17.09,78.303-2.544c18.919,14.89,46.354,14.061,69.815,1.715" fill="none" stroke="#6C6CAA" stroke-linecap="round" stroke-linejoin="round" stroke-miterlimit="10" stroke-width="20.1764"/>

<path d="    M-1434.7,924.718c17.461-7.345,34.064-8.23,47.668,2.543c24.862,11.975,50.354,16.147,77.474,0.857    c20.062-5.572,37.494-9.717,61.271-0.857" fill="none" stroke="#6C6CAA" stroke-linecap="round" stroke-linejoin="round" stroke-miterlimit="10" stroke-width="20.1764"/>

<path clip-rule="evenodd" d="M-1251.089,748.846c-20.318-22.434-49.668-36.495-82.304-36.495    c-58.499,0-106.423,45.183-110.767,102.568c-0.229,2.973-1.543,8.145,1.086,8.145l216.133-0.313    C-1232.742,785.598-1236.942,767.822-1251.089,748.846L-1251.089,748.846z" fill="#F5D8B3" fill-rule="evenodd"/>

<line fill="none" stroke="#6C6CAA" stroke-linecap="round" stroke-linejoin="round" stroke-miterlimit="10" stroke-width="20.1764" x1="-1339.365" x2="-1339.365" y1="625.102" y2="677.028"/>

<line fill="none" stroke="#6C6CAA" stroke-linecap="round" stroke-linejoin="round" stroke-miterlimit="10" stroke-width="20.1764" x1="-1206.564" x2="-1244.888" y1="682.973" y2="720.439"/>

<line fill="none" stroke="#6C6CAA" stroke-linecap="round" stroke-linejoin="round" stroke-miterlimit="10" stroke-width="20.1764" x1="-1274.665" x2="-1287.439" y1="669.37" y2="687.231"/>

<line fill="none" stroke="#6C6CAA" stroke-linecap="round" stroke-linejoin="round" stroke-miterlimit="10" stroke-width="20.1764" x1="-1404.036" x2="-1392.12" y1="668.512" y2="687.459"/>

<line fill="none" stroke="#6C6CAA" stroke-linecap="round" stroke-linejoin="round" stroke-miterlimit="10" stroke-width="20.1764" x1="-1487.454" x2="-1465.335" y1="753.619" y2="766.393"/>

<line fill="none" stroke="#6C6CAA" stroke-linecap="round" stroke-linejoin="round" stroke-miterlimit="10" stroke-width="20.1764" x1="-1529.178" x2="-1472.995" y1="815.777" y2="815.777"/>

<line fill="none" stroke="#6C6CAA" stroke-linecap="round" stroke-linejoin="round" stroke-miterlimit="10" stroke-width="20.1764" x1="-1202.735" x2="-1185.074" y1="760.021" y2="756.391"/>

<path clip-rule="evenodd" d="    M-1550.897,717.038h119.169c26.377-52.784-60.214-63.444-68.102-28.95C-1530.207,668.369-1561.957,686.517-1550.897,717.038    L-1550.897,717.038z" fill="#DCF2FF" fill-rule="evenodd" stroke="#6C6CAA" stroke-linecap="round" stroke-linejoin="round" stroke-miterlimit="10" stroke-width="20.1764"/>

<path clip-rule="evenodd" d="    M-1304.758,812.291h118.312c3.287-26.55-13.889-32.208-49.354-28.093C-1280.752,756.762-1311.73,781.254-1304.758,812.291    L-1304.758,812.291z" fill="#DCF2FF" fill-rule="evenodd" stroke="#6C6CAA" stroke-linecap="round" stroke-linejoin="round" stroke-miterlimit="10" stroke-width="20.1764"/>

<path d="    M-1251.089,748.846c-20.318-22.434-49.668-36.495-82.304-36.495c-58.499,0-106.423,45.183-110.767,102.568" fill="none" stroke="#6C6CAA" stroke-linecap="round" stroke-linejoin="round" stroke-miterlimit="10" stroke-width="20.1764"/>

</g>

<g>

<polygon fill="none" points="    -912.931,678.803 -930.392,714.354 -891.212,734.588   " stroke="#6C6CAA" stroke-linecap="round" stroke-linejoin="round" stroke-miterlimit="10" stroke-width="20.1478"/>

<path clip-rule="evenodd" d="    M-712.03,736.103C-632.384,747.42-577,772.426-577,801.49c0,39.667-103.138,71.817-230.365,71.817    c-127.199,0-230.336-32.15-230.336-71.817c0-21.063,29.092-40.01,75.444-53.156l54.299,12.174l16.746-25.921    c-8.916,20.063-14.289,43.325-14.975,68.274c65.614,38.952,135.658,33.322,208.503,0    C-698.342,778.542-703.485,755.793-712.03,736.103L-712.03,736.103z" fill="#F9E5D3" fill-rule="evenodd" stroke="#6C6CAA" stroke-linecap="round" stroke-linejoin="round" stroke-miterlimit="10" stroke-width="20.1478"/>

<path clip-rule="evenodd" d="    M-801.936,666c56.298,0,102.165,60.786,104.252,136.862c-72.845,33.322-142.889,38.952-208.503,0    C-904.101,726.786-858.233,666-801.936,666L-801.936,666z" fill="#F9E5D3" fill-rule="evenodd" stroke="#6C6CAA" stroke-linecap="round" stroke-linejoin="round" stroke-miterlimit="10" stroke-width="20.1478"/>

<polygon fill="none" points="    -948.624,704.952 -962.257,748.334 -907.958,760.509 -891.212,734.588   " stroke="#6C6CAA" stroke-linecap="round" stroke-linejoin="round" stroke-miterlimit="10" stroke-width="20.1478"/>

<path d="    M-749.838,783.114c-57.527,20.834-104.595,13.632-150.062-13.403" fill="none" stroke="#6C6CAA" stroke-linecap="round" stroke-linejoin="round" stroke-miterlimit="10" stroke-width="20.1478"/>

<line fill="none" stroke="#6C6CAA" stroke-linecap="round" stroke-linejoin="round" stroke-miterlimit="10" stroke-width="20.1478" x1="-723.004" x2="-723.004" y1="774.283" y2="774.055"/>

</g>

<g>

<path clip-rule="evenodd" d="    M-425.582,918.272c6.887-85.021,93.277-120.544,171.58-113.514l-0.486,0.457c-0.743,0.687-1.485,1.372-2.229,2.058l-0.486,0.457    c-0.8,0.715-1.601,1.43-2.4,2.173l-0.457,0.428c-0.801,0.715-1.601,1.43-2.4,2.144l-0.458,0.429    c-0.886,0.771-1.771,1.572-2.657,2.372l-0.086,0.086l-0.028,0.028l-0.086,0.058c-0.914,0.8-1.829,1.629-2.771,2.458l-0.258,0.229    c-1,0.886-1.972,1.743-2.972,2.629h-0.028l0,0c-1.029,0.914-2.087,1.857-3.173,2.772l33.208,19.348    c1.057-1.258,2.114-2.516,3.172-3.744l0.2-0.229l0.085-0.086c1.029-1.229,2.029-2.4,3.029-3.601l0.343-0.4    c0.887-1.028,1.744-2.058,2.63-3.087l0.8-0.972c0.715-0.856,1.429-1.686,2.115-2.543l1.2-1.4c0.543-0.686,1.086-1.343,1.657-2    c0.515-0.629,1.058-1.286,1.571-1.915l0.943-1.144l0.372-0.457c0.657-0.771,1.285-1.543,1.914-2.314l0.372-0.458l0.171-0.199    c0.687-0.857,1.372-1.715,2.058-2.544l0.343-0.457l0.372-0.429c0.714-0.915,1.429-1.801,2.144-2.687l0.343-0.429    c52.926,15.175,94.049,51.984,90.22,107.855c-36.608,26.892-61.07,30.578-95.964,8.459    c-47.382-34.694-85.677-12.261-122.484-0.058C-374.657,938.163-399.463,944.394-425.582,918.272L-425.582,918.272z" fill="#B0F0A8" fill-rule="evenodd" stroke="#6C6CAA" stroke-linecap="round" stroke-linejoin="round" stroke-miterlimit="10" stroke-width="20.1764"/>

<path clip-rule="evenodd" d="    M-134.204,611.254c20.719,0,38.693,11.717,47.695,28.893h-95.421C-172.928,622.971-154.924,611.254-134.204,611.254    L-134.204,611.254z" fill="#B0F0A8" fill-rule="evenodd" stroke="#6C6CAA" stroke-linecap="round" stroke-linejoin="round" stroke-miterlimit="10" stroke-width="20.1764"/>

<path clip-rule="evenodd" d="    M-217.052,587.248c14.403,7.773,22.491,22.691,22.291,37.981l-66.3-35.866C-248.372,580.818-231.454,579.446-217.052,587.248    L-217.052,587.248z" fill="#B0F0A8" fill-rule="evenodd" stroke="#6C6CAA" stroke-linecap="round" stroke-linejoin="round" stroke-miterlimit="10" stroke-width="20.1764"/>

<path clip-rule="evenodd" d="    M-161.896,587.248c-14.403,7.773-22.49,22.691-22.29,37.981l66.3-35.866C-130.575,580.818-147.493,579.446-161.896,587.248    L-161.896,587.248z" fill="#B0F0A8" fill-rule="evenodd" stroke="#6C6CAA" stroke-linecap="round" stroke-linejoin="round" stroke-miterlimit="10" stroke-width="20.1764"/>

<path clip-rule="evenodd" d="    M-236.713,611.254c20.719,0,38.723,11.717,47.696,28.893h-95.392C-275.436,622.971-257.432,611.254-236.713,611.254    L-236.713,611.254z" fill="#B0F0A8" fill-rule="evenodd" stroke="#6C6CAA" stroke-linecap="round" stroke-linejoin="round" stroke-miterlimit="10" stroke-width="20.1764"/>

<path clip-rule="evenodd" d="    M-236.884,657.265c12.06-11.66,29.092-14.975,43.98-10.06l-55.44,53.67C-252.773,685.844-248.915,668.925-236.884,657.265    L-236.884,657.265z" fill="#B0F0A8" fill-rule="evenodd" stroke="#6C6CAA" stroke-linecap="round" stroke-linejoin="round" stroke-miterlimit="10" stroke-width="20.1764"/>

<path clip-rule="evenodd" d="    M-129.261,657.265c-12.06-11.66-29.092-14.975-43.98-10.06l55.44,53.67C-113.371,685.844-117.229,668.925-129.261,657.265    L-129.261,657.265z" fill="#B0F0A8" fill-rule="evenodd" stroke="#6C6CAA" stroke-linecap="round" stroke-linejoin="round" stroke-miterlimit="10" stroke-width="20.1764"/>

<path clip-rule="evenodd" d="    M-274.979,823.535c68.358-59.615,88.819-87.822,91.335-190.133c20.032,107.055,15.26,123.602-58.127,209.48L-274.979,823.535z" fill="#F5D8B3" fill-rule="evenodd" stroke="#6C6CAA" stroke-linecap="round" stroke-linejoin="round" stroke-miterlimit="10" stroke-width="20.1764"/>

<path d="    M-506,917.672c26.977-5.372,36.493-5.029,55.897,18.319c18.861,23.863,43.152,33.408,74.188,34.094    c39.122,0.114,54.525-26.949,92.963-27.121c39.951,1.601,51.383,23.635,90.477,32.037c29.007,7.23,55.498-14.146,89.963-34.866    c34.922-20.891,41.98-17.947,60.585-4.087" fill="none" stroke="#6C6CAA" stroke-linecap="round" stroke-linejoin="round" stroke-miterlimit="10" stroke-width="20.1764"/>

<path d="    M-451.074,980.402c24.834,21.434,49.84,27.235,72.873,28.178c39.952,0.715,59.984-30.836,93.535-28.407    c55.498,11.432,84.476,57.071,150.404,16.204" fill="none" stroke="#6C6CAA" stroke-linecap="round" stroke-linejoin="round" stroke-miterlimit="10" stroke-width="20.1764"/>

<line fill="none" stroke="#6C6CAA" stroke-linecap="round" stroke-linejoin="round" stroke-miterlimit="10" stroke-width="20.1764" x1="-98.168" x2="-70.819" y1="976.716" y2="961.426"/>

<path clip-rule="evenodd" d="    M-466.277,643.519c-33.551-10.688-14.889-58.271,21.233-37.667c-11.146-44.64,67.129-48.641,55.955,1.086    c28.006-31.951,68.358,16.861,32.292,36.581H-466.277z" fill="#DCF2FF" fill-rule="evenodd" stroke="#6C6CAA" stroke-linecap="round" stroke-linejoin="round" stroke-miterlimit="10" stroke-width="20.1764"/>

<path clip-rule="evenodd" d="    M-376.771,711.25c-29.521-11.231,10.287-67.216,48.953-23.206c20.461-23.292,46.067,14.089,20.49,23.206H-376.771z" fill="#DCF2FF" fill-rule="evenodd" stroke="#6C6CAA" stroke-linecap="round" stroke-linejoin="round" stroke-miterlimit="10" stroke-width="20.1764"/>

<line fill="none" stroke="#6C6CAA" stroke-linecap="round" stroke-linejoin="round" stroke-miterlimit="10" stroke-width="20.1764" x1="-471.107" x2="-471.107" y1="960.111" y2="959.911"/>

</g>

<g>

<polygon clip-rule="evenodd" fill="#F9E5D3" fill-rule="evenodd" points="    212.108,718.875 314.273,718.875 319.046,827.617 301.5,827.617 301.5,856.424 274.322,856.424 274.322,827.931 244.687,827.96     244.516,856.538 219.31,856.767 219.31,827.617 200.534,827.417   " stroke="#6C6CAA" stroke-linecap="round" stroke-linejoin="round" stroke-miterlimit="10" stroke-width="20.1478"/>

<polygon clip-rule="evenodd" fill="#F9E5D3" fill-rule="evenodd" points="    51.645,991.343 60.161,835.476 88.31,835.476 93.54,759.486 164.298,759.486 164.298,831.532 189.161,832.847 189.732,991.429       " stroke="#6C6CAA" stroke-linecap="round" stroke-linejoin="round" stroke-miterlimit="10" stroke-width="20.1478"/>

<polygon clip-rule="evenodd" fill="#F9E5D3" fill-rule="evenodd" points="    464.621,992.515 459.02,834.161 436.729,832.847 436.729,762.115 362.084,762.115 362.084,830.218 334.564,831.532     333.249,992.657   " stroke="#6C6CAA" stroke-linecap="round" stroke-linejoin="round" stroke-miterlimit="10" stroke-width="20.1478"/>

<polygon clip-rule="evenodd" fill="#F9E5D3" fill-rule="evenodd" points="    219.31,827.617 189.161,827.273 189.732,991.429 333.249,992.657 334.25,827.617 301.5,827.617 301.5,856.424 274.322,856.424     274.322,827.931 244.687,827.96 244.516,856.538 219.31,856.767   " stroke="#6C6CAA" stroke-linecap="round" stroke-linejoin="round" stroke-miterlimit="10" stroke-width="20.1478"/>

<polygon clip-rule="evenodd" fill="#F9E5D3" fill-rule="evenodd" points="    233.228,660.118 293.47,660.118 299.699,718.875 226.026,718.875   " stroke="#6C6CAA" stroke-linecap="round" stroke-linejoin="round" stroke-miterlimit="10" stroke-width="20.1478"/>

<line fill="none" stroke="#6C6CAA" stroke-linecap="round" stroke-linejoin="round" stroke-miterlimit="10" stroke-width="20.1478" x1="260.063" x2="260.063" y1="593.302" y2="660.118"/>

<polygon clip-rule="evenodd" fill="#B0F0A8" fill-rule="evenodd" points="    307.559,613.278 260.063,636.513 260.063,593.302   " stroke="#6C6CAA" stroke-linecap="round" stroke-linejoin="round" stroke-miterlimit="10" stroke-width="20.1478"/>

<line fill="none" stroke="#6C6CAA" stroke-linecap="round" stroke-linejoin="round" stroke-miterlimit="10" stroke-width="20.1478" x1="124.661" x2="124.661" y1="693.669" y2="759.486"/>

<polygon clip-rule="evenodd" fill="#B0F0A8" fill-rule="evenodd" points="    166.585,714.303 124.661,735.594 124.661,693.669   " stroke="#6C6CAA" stroke-linecap="round" stroke-linejoin="round" stroke-miterlimit="10" stroke-width="20.1478"/>

<line fill="none" stroke="#6C6CAA" stroke-linecap="round" stroke-linejoin="round" stroke-miterlimit="10" stroke-width="20.1478" x1="395.806" x2="395.806" y1="692.041" y2="762.115"/>

<polygon clip-rule="evenodd" fill="#B0F0A8" fill-rule="evenodd" points="    439.701,712.988 395.806,735.251 395.806,692.041   " stroke="#6C6CAA" stroke-linecap="round" stroke-linejoin="round" stroke-miterlimit="10" stroke-width="20.1478"/>

<path clip-rule="evenodd" d="    M261.377,780.291c8.659,0,15.718-7.059,15.718-15.718s-7.059-15.718-15.718-15.718s-15.718,7.059-15.718,15.718    S252.718,780.291,261.377,780.291L261.377,780.291z" fill="#DBBEB9" fill-rule="evenodd" stroke="#6C6CAA" stroke-linecap="round" stroke-linejoin="round" stroke-miterlimit="10" stroke-width="20.1478"/>

<path clip-rule="evenodd" d="    M124.946,899.377c8.66,0,15.719-7.059,15.719-15.718c0-8.631-7.059-15.718-15.719-15.718c-8.658,0-15.717,7.087-15.717,15.718    C109.229,892.318,116.288,899.377,124.946,899.377L124.946,899.377z" fill="#DBBEB9" fill-rule="evenodd" stroke="#6C6CAA" stroke-linecap="round" stroke-linejoin="round" stroke-miterlimit="10" stroke-width="20.1478"/>

<path clip-rule="evenodd" d="    M398.949,901.32c8.659,0,15.718-7.059,15.718-15.718s-7.059-15.718-15.718-15.718c-8.658,0-15.718,7.059-15.718,15.718    S390.291,901.32,398.949,901.32L398.949,901.32z" fill="#DBBEB9" fill-rule="evenodd" stroke="#6C6CAA" stroke-linecap="round" stroke-linejoin="round" stroke-miterlimit="10" stroke-width="20.1478"/>

<path clip-rule="evenodd" d="    M254.118,910.58h12.231c13.488,0,24.49,11.003,24.49,24.491v57.157h-61.213v-57.157C229.627,921.583,240.63,910.58,254.118,910.58    L254.118,910.58z" fill="#DBBEB9" fill-rule="evenodd" stroke="#6C6CAA" stroke-linecap="round" stroke-linejoin="round" stroke-miterlimit="10" stroke-width="20.1478"/>

<line fill="none" stroke="#6C6CAA" stroke-linecap="round" stroke-linejoin="round" stroke-miterlimit="10" stroke-width="20.1478" x1="108.629" x2="88.31" y1="835.476" y2="835.476"/>

<line fill="none" stroke="#6C6CAA" stroke-linecap="round" stroke-linejoin="round" stroke-miterlimit="10" stroke-width="20.1478" x1="420.04" x2="447.875" y1="833.504" y2="833.504"/>

<line fill="none" stroke="#6C6CAA" stroke-linecap="round" stroke-linejoin="round" stroke-miterlimit="10" stroke-width="20.1478" x1="394.034" x2="394.034" y1="834.333" y2="834.133"/>

<line fill="none" stroke="#6C6CAA" stroke-linecap="round" stroke-linejoin="round" stroke-miterlimit="10" stroke-width="20.1478" x1="132.663" x2="132.663" y1="835.161" y2="834.99"/>

<line fill="none" stroke="#6C6CAA" stroke-linecap="round" stroke-linejoin="round" stroke-miterlimit="10" stroke-width="20.1478" x1="18.238" x2="497" y1="993" y2="993"/>

</g>

<g>

<path clip-rule="evenodd" d="    M248.983,1148.542h8.46c6.973,0,12.688,5.716,12.688,12.689v13.804l-16.918-3.916l-16.947,3.772v-13.661    C236.267,1154.258,241.982,1148.542,248.983,1148.542L248.983,1148.542z" fill="#F4B1C3" fill-rule="evenodd" stroke="#6C6CAA" stroke-linecap="round" stroke-linejoin="round" stroke-miterlimit="10" stroke-width="20.1478"/>

<path clip-rule="evenodd" d="    M114.812,1201.87l138.402-30.75l133.915,31.093c12.06,3.487,22.033,7.23,26.806,19.776l31.178,163.612l31.521,57.157    c19.262,34.923,12.488,23.806-27.12,16.918c-127.257-22.091-254.513-24.377-381.77-1.571    c-40.466,7.259-52.726,21.319-32.406-14.575l34.436-60.758l28.092-160.783C99.037,1211.357,105.038,1204.985,114.812,1201.87    L114.812,1201.87z" fill="#DCF2FF" fill-rule="evenodd" stroke="#6C6CAA" stroke-linecap="round" stroke-linejoin="round" stroke-miterlimit="10" stroke-width="20.1478"/>

<path d="    M69.773,1382.771c131.086-30.865,255.542-26.521,375.339,2.829" fill="none" stroke="#6C6CAA" stroke-linecap="round" stroke-linejoin="round" stroke-miterlimit="10" stroke-width="20.1478"/>

<path clip-rule="evenodd" d="    M248.069,1260.713c-72.273-70.846-101.594,45.84-9.174,20.833c-52.84,50.841,16.519,61.215,22.52,12.432    c50.697,69.074,72.33-41.182,9.917-26.006C336.089,1222.274,233.237,1191.639,248.069,1260.713L248.069,1260.713z" fill="#F9E5D3" fill-rule="evenodd" stroke="#6C6CAA" stroke-linecap="round" stroke-linejoin="round" stroke-miterlimit="10" stroke-width="20.1478"/>

</g>

<g>

<path clip-rule="evenodd" d="    M-475.695,1338.756c2.858-30.036,16.49-44.497,38.608-46.668h117.455c26.177,8.316,32.807,29.264,22.52,61.158    c-23.463,113.456-178.153,110.941-178.583,50.67V1338.756z" fill="#929FC5" fill-rule="evenodd" stroke="#6C6CAA" stroke-linecap="round" stroke-linejoin="round" stroke-miterlimit="10" stroke-width="20.1764"/>

<path clip-rule="evenodd" d="    M-70.692,1338.756c-2.829-30.036-16.46-44.497-38.608-46.668h-117.426c-26.205,8.316-32.807,29.264-22.547,61.158    c23.462,113.456,178.182,110.941,178.581,50.67V1338.756z" fill="#929FC5" fill-rule="evenodd" stroke="#6C6CAA" stroke-linecap="round" stroke-linejoin="round" stroke-miterlimit="10" stroke-width="20.1764"/>

<polyline fill="none" points="    -454.376,1201.608 -505.844,1251.478 -505.844,1345.586 -475.695,1345.586   " stroke="#6C6CAA" stroke-linecap="round" stroke-linejoin="round" stroke-miterlimit="10" stroke-width="20.1764"/>

<polyline fill="none" points="    -92.497,1201.608 -41,1251.478 -41,1345.586 -71.178,1345.586   " stroke="#6C6CAA" stroke-linecap="round" stroke-linejoin="round" stroke-miterlimit="10" stroke-width="20.1764"/>

<line fill="none" stroke="#6C6CAA" stroke-linecap="round" stroke-linejoin="round" stroke-miterlimit="10" stroke-width="20.1764" x1="-319.632" x2="-226.727" y1="1292.088" y2="1292.088"/>

<line fill="none" stroke="#6C6CAA" stroke-linecap="round" stroke-linejoin="round" stroke-miterlimit="10" stroke-width="20.1764" x1="-292.97" x2="-253.389" y1="1335.298" y2="1335.298"/>

<line fill="none" stroke="#6C6CAA" stroke-linecap="round" stroke-linejoin="round" stroke-miterlimit="10" stroke-width="20.1764" x1="-382.789" x2="-439.888" y1="1327.096" y2="1393.055"/>

<line fill="none" stroke="#6C6CAA" stroke-linecap="round" stroke-linejoin="round" stroke-miterlimit="10" stroke-width="20.1764" x1="-353.982" x2="-376.188" y1="1348.988" y2="1375.965"/>

<line fill="none" stroke="#6C6CAA" stroke-linecap="round" stroke-linejoin="round" stroke-miterlimit="10" stroke-width="20.1764" x1="-169.113" x2="-112.016" y1="1327.096" y2="1393.055"/>

<line fill="none" stroke="#6C6CAA" stroke-linecap="round" stroke-linejoin="round" stroke-miterlimit="10" stroke-width="20.1764" x1="-197.92" x2="-175.687" y1="1348.988" y2="1375.965"/>

</g>

<g>

<path clip-rule="evenodd" d="    M-795.203,1094.8c113.939,4.944,205.873,94.88,213.904,208.022c-1.43-0.457-2.943-0.686-4.486-0.686h-32.408h-0.057    c-8.174-91.937-82.646-164.812-175.324-170.442v-29.921C-793.574,1099.258-794.174,1096.886-795.203,1094.8L-795.203,1094.8z     M-581.127,1332.802c-6.916,113.742-98.508,204.593-212.533,210.309c0.057-0.6,0.086-1.2,0.086-1.8v-32.408    c0-0.886-0.057-1.772-0.199-2.63c93.506-5.572,168.578-79.647,175.723-172.756h32.266    C-584.186,1333.517-582.613,1333.287-581.127,1332.802L-581.127,1332.802z M-824.953,1132.381    c-88.791,9.316-159.121,80.591-167.065,169.785c-0.286,0-0.6-0.028-0.886-0.028h-32.407c-1.257,0-2.458,0.143-3.629,0.428    c7.945-110.17,95.478-198.306,205.388-207.251c-0.887,1.972-1.4,4.173-1.4,6.459V1132.381z M-992.189,1333.517    c6.916,90.394,77.875,162.868,167.58,172.099c-0.229,1.058-0.343,2.172-0.343,3.287v32.408c0,0.399,0.028,0.8,0.057,1.229    c-110.053-9.631-197.329-98.653-204.187-209.48c1.2,0.314,2.458,0.458,3.772,0.458h32.407    C-992.675,1333.517-992.446,1333.517-992.189,1333.517L-992.189,1333.517z" fill="#F5D8B3" fill-rule="evenodd" stroke="#6C6CAA" stroke-linecap="round" stroke-linejoin="round" stroke-miterlimit="10" stroke-width="20.1764"/>

<path clip-rule="evenodd" d="    M-793.574,1132.724c92.105,5.63,166.15,78.048,174.324,169.471c-8.145,0.543-14.633,7.373-14.633,15.632l0,0    c0,8.345,6.574,15.232,14.832,15.661c-7.145,92.623-81.875,166.298-174.953,171.785c-1.629-6.887-7.857-12.06-15.259-12.06l0,0    c-7.145,0-13.203,4.829-15.09,11.402c-89.305-9.116-159.949-81.248-166.836-171.185c7.83-0.857,13.975-7.545,13.975-15.604l0,0    c0-7.974-6.059-14.604-13.775-15.575c7.859-88.679,77.789-159.525,166.037-168.842v0.771c0,8.631,7.059,15.69,15.689,15.69l0,0    c8.63,0,15.689-7.059,15.689-15.69V1132.724z M-805.119,1234.377c46.725,0,84.59,37.895,84.59,84.592    c0,46.726-37.865,84.621-84.59,84.621c-46.725,0-84.59-37.896-84.59-84.621C-889.709,1272.272-851.844,1234.377-805.119,1234.377    L-805.119,1234.377z" fill="#FDB7CA" fill-rule="evenodd" stroke="#6C6CAA" stroke-linecap="round" stroke-linejoin="round" stroke-miterlimit="10" stroke-width="20.1764"/>

<line fill="none" stroke="#6C6CAA" stroke-linecap="round" stroke-linejoin="round" stroke-miterlimit="10" stroke-width="20.1764" x1="-660.174" x2="-745.307" y1="1201.426" y2="1259.155"/>

<line fill="none" stroke="#6C6CAA" stroke-linecap="round" stroke-linejoin="round" stroke-miterlimit="10" stroke-width="20.1764" x1="-952.552" x2="-867.448" y1="1201.426" y2="1259.155"/>

<line fill="none" stroke="#6C6CAA" stroke-linecap="round" stroke-linejoin="round" stroke-miterlimit="10" stroke-width="20.1764" x1="-952.552" x2="-867.448" y1="1436.827" y2="1379.07"/>

<line fill="none" stroke="#6C6CAA" stroke-linecap="round" stroke-linejoin="round" stroke-miterlimit="10" stroke-width="20.1764" x1="-660.174" x2="-745.307" y1="1436.827" y2="1379.07"/>

<path clip-rule="evenodd" d="    M-809.263,1493.213L-809.263,1493.213c8.63,0,15.689,7.059,15.689,15.689v32.408c0,8.63-7.059,15.689-15.689,15.689l0,0    c-8.631,0-15.689-7.06-15.689-15.689v-32.408C-824.953,1500.271-817.894,1493.213-809.263,1493.213L-809.263,1493.213z" fill="#F9E5D3" fill-rule="evenodd" stroke="#6C6CAA" stroke-linecap="round" stroke-linejoin="round" stroke-miterlimit="10" stroke-width="20.1764"/>

<path clip-rule="evenodd" d="    M-809.263,1086.084L-809.263,1086.084c8.63,0,15.689,7.059,15.689,15.689v32.408c0,8.631-7.059,15.69-15.689,15.69l0,0    c-8.631,0-15.689-7.059-15.689-15.69v-32.408C-824.953,1093.143-817.894,1086.084-809.263,1086.084L-809.263,1086.084z" fill="#F9E5D3" fill-rule="evenodd" stroke="#6C6CAA" stroke-linecap="round" stroke-linejoin="round" stroke-miterlimit="10" stroke-width="20.1764"/>

<path clip-rule="evenodd" d="    M-1041,1317.827L-1041,1317.827c0-8.631,7.059-15.689,15.689-15.689h32.407c8.63,0,15.689,7.059,15.689,15.689l0,0    c0,8.63-7.059,15.69-15.689,15.69h-32.407C-1033.941,1333.517-1041,1326.457-1041,1317.827L-1041,1317.827z" fill="#F9E5D3" fill-rule="evenodd" stroke="#6C6CAA" stroke-linecap="round" stroke-linejoin="round" stroke-miterlimit="10" stroke-width="20.1764"/>

<path clip-rule="evenodd" d="    M-633.883,1317.827L-633.883,1317.827c0-8.631,7.059-15.689,15.689-15.689h32.408c8.629,0,15.688,7.059,15.688,15.689l0,0    c0,8.63-7.059,15.69-15.688,15.69h-32.408C-626.824,1333.517-633.883,1326.457-633.883,1317.827L-633.883,1317.827z" fill="#F9E5D3" fill-rule="evenodd" stroke="#6C6CAA" stroke-linecap="round" stroke-linejoin="round" stroke-miterlimit="10" stroke-width="20.1764"/>

</g>

<g>

<path clip-rule="evenodd" d="    M-1358.467,1548c-8.316-51.299-34.15-85.05-78.56-100.225v-130.032c-61.985-8.659-60.757-108.141-10.831-121.916l2.457,0.028    v-100.625h27.264c8.116,93.994-29.578,144.064,69.873,156.267c100.735-6.744,79.702-80.706,81.132-156.267h27.263v103.311h0.601    c51.325,24.806,45.724,105.34-1.372,119.201l-1.343,127.317c-49.354,16.118-78.446,50.669-88.048,102.939H-1358.467z" fill="#FDB7CA" fill-rule="evenodd" stroke="#6C6CAA" stroke-linecap="round" stroke-linejoin="round" stroke-miterlimit="10" stroke-width="20.1764"/>

<line fill="none" stroke="#6C6CAA" stroke-linecap="round" stroke-linejoin="round" stroke-miterlimit="10" stroke-width="20.1764" x1="-1410.793" x2="-1440.256" y1="1317.4" y2="1317.4"/>

<line fill="none" stroke="#6C6CAA" stroke-linecap="round" stroke-linejoin="round" stroke-miterlimit="10" stroke-width="20.1764" x1="-1241.841" x2="-1271.305" y1="1318.744" y2="1318.744"/>

<line fill="none" stroke="#6C6CAA" stroke-linecap="round" stroke-linejoin="round" stroke-miterlimit="10" stroke-width="20.1764" x1="-1386.416" x2="-1386.416" y1="1319.144" y2="1318.915"/>

</g>

<g>

<path clip-rule="evenodd" d="    M-1872.072,1552c24.891-34.666,53.097-43.611,75.302-60.673c46.582-35.809,79.646-65.559,95.05-122.944l25.462,17.233    l-8.43-106.198l-64.357,66.245l20.833,17.062c-16.261,31.551-82.161,119.743-113.567,58.672l-9.859-175.015h59.07v-35.98h-61.1    l-2.114-37.752c16.889-5.315,29.12-21.091,29.12-39.724c0-23.005-18.633-41.639-41.638-41.639s-41.637,18.633-41.637,41.639    c0,15.861,8.858,29.636,21.89,36.667l-2.028,40.81h-55.813v35.98h54.04l-8.602,173.128    c-41.466,59.301-84.533-25.32-114.511-59.644l19.861-25.549l-62.471-49.212l-6.43,105.997l20.633-21.776    c20.689,54.585,62.1,95.538,99.393,124.059C-1922.855,1507.846-1896.048,1519.22-1872.072,1552L-1872.072,1552z" fill="#929FC5" fill-rule="evenodd" stroke="#6C6CAA" stroke-linecap="round" stroke-linejoin="round" stroke-miterlimit="10" stroke-width="20.1478"/>

<line fill="none" stroke="#6C6CAA" stroke-linecap="round" stroke-linejoin="round" stroke-miterlimit="10" stroke-width="20.1478" x1="-1871.129" x2="-1871.129" y1="1489.527" y2="1539.683"/>

<line fill="none" stroke="#6C6CAA" stroke-linecap="round" stroke-linejoin="round" stroke-miterlimit="10" stroke-width="20.1478" x1="-1871.129" x2="-1871.129" y1="1452.632" y2="1452.347"/>

<line fill="none" stroke="#6C6CAA" stroke-linecap="round" stroke-linejoin="round" stroke-miterlimit="10" stroke-width="20.1478" x1="-1869.214" x2="-1869.214" y1="1130.839" y2="1130.553"/>

</g>

<g>

<path clip-rule="evenodd" d="    M274.926,1823.935c31.636,6.087,54.813,25.921,54.813,49.44c0,8.603-3.059,16.747-8.573,23.863    c-7.802,10.031-15.032,26.378-3.744,37.238c16.689,16.004,34.579,40.324,34.579,67.33c0,46.783-40.266,85.021-91.22,87.993v0.2    c-1.058,0-2.115-0.028-3.173-0.057c-1.085,0.028-2.144,0.057-3.2,0.057v-0.2c-50.926-2.972-91.221-41.21-91.221-87.993    c0-27.006,17.891-51.326,34.58-67.33c11.287-10.86,4.058-27.207-3.715-37.238c-5.516-7.116-8.603-15.261-8.603-23.863    c0-24.92,26.006-45.668,60.499-50.383v114.142c4.144-1.943,8.773-3.058,13.688-3.058c5.516,0,10.745,1.4,15.289,3.858V1823.935z" fill="#DBBEB9" fill-rule="evenodd" stroke="#6C6CAA" stroke-linecap="round" stroke-linejoin="round" stroke-miterlimit="10" stroke-width="20.1764"/>

<path clip-rule="evenodd" d="    M245.948,1683.5h28.978v254.435c-4.544-2.458-9.773-3.858-15.289-3.858c-4.915,0-9.545,1.114-13.688,3.058V1683.5z" fill="#DBBEB9" fill-rule="evenodd" stroke="#6C6CAA" stroke-linecap="round" stroke-linejoin="round" stroke-miterlimit="10" stroke-width="20.1764"/>

<path clip-rule="evenodd" d="    M259.637,1998.492c17.719,0,32.179-14.461,32.179-32.208c0-17.719-14.46-32.208-32.179-32.208    c-17.747,0-32.207,14.489-32.207,32.208C227.43,1984.031,241.89,1998.492,259.637,1998.492L259.637,1998.492z" fill="#DBBEB9" fill-rule="evenodd" stroke="#6C6CAA" stroke-linecap="round" stroke-linejoin="round" stroke-miterlimit="10" stroke-width="20.1764"/>

<line fill="none" stroke="#6C6CAA" stroke-linecap="round" stroke-linejoin="round" stroke-miterlimit="10" stroke-width="20.1764" x1="229.03" x2="293.444" y1="2021.812" y2="2021.812"/>

<path clip-rule="evenodd" d="    M248.349,1618.57h26.577c5.744,0,10.46,4.715,10.46,10.46v41.867c0,5.744-4.716,10.46-10.46,10.46h-26.577    c-5.744,0-10.459-4.716-10.459-10.46v-41.867C237.89,1623.285,242.604,1618.57,248.349,1618.57L248.349,1618.57z" fill="#DBBEB9" fill-rule="evenodd" stroke="#6C6CAA" stroke-linecap="round" stroke-linejoin="round" stroke-miterlimit="10" stroke-width="20.1764"/>

</g>

<g>

<path clip-rule="evenodd" d="    M-243.527,1942.879v110.342c0,18.318-15.004,33.322-33.351,33.322l0,0c-18.318,0-33.321-15.004-33.321-33.322v-110.342H-243.527z" fill="#F9E5D3" fill-rule="evenodd" stroke="#6C6CAA" stroke-linecap="round" stroke-linejoin="round" stroke-miterlimit="10" stroke-width="20.1764"/>

<path clip-rule="evenodd" d="    M-276.049,1622L-276.049,1622c60.527,0,110.024,49.498,110.024,109.999v191.276c0.514,14.403-7.059,20.747-22.091,19.604h-177.496    c-15.976,0-21.119-5.001-20.433-18.776v-192.104C-386.044,1671.498-336.548,1622-276.049,1622L-276.049,1622z" fill="#F4B1C3" fill-rule="evenodd" stroke="#6C6CAA" stroke-linecap="round" stroke-linejoin="round" stroke-miterlimit="10" stroke-width="20.1764"/>

<path clip-rule="evenodd" d="    M-317.829,1709.993L-317.829,1709.993c9.945,0,18.09,8.117,18.09,18.062v150.551c0,9.917-8.145,18.062-18.09,18.062l0,0    c-9.917,0-18.062-8.145-18.062-18.062v-150.551C-335.891,1718.109-327.746,1709.993-317.829,1709.993L-317.829,1709.993z" fill="#F5D8B3" fill-rule="evenodd" stroke="#6C6CAA" stroke-linecap="round" stroke-linejoin="round" stroke-miterlimit="10" stroke-width="20.1764"/>

<path clip-rule="evenodd" d="    M-234.239,1709.993L-234.239,1709.993c9.916,0,18.061,8.117,18.061,18.062v150.551c0,9.917-8.145,18.062-18.061,18.062l0,0    c-9.945,0-18.09-8.145-18.09-18.062v-150.551C-252.329,1718.109-244.185,1709.993-234.239,1709.993L-234.239,1709.993z" fill="#F5D8B3" fill-rule="evenodd" stroke="#6C6CAA" stroke-linecap="round" stroke-linejoin="round" stroke-miterlimit="10" stroke-width="20.1764"/>

<path d="    M-343.578,1684.729c0,0,15.003-41.667,65.843-34.18" fill="none" stroke="#6C6CAA" stroke-linecap="round" stroke-linejoin="round" stroke-miterlimit="10" stroke-width="20.1764"/>

<line fill="none" stroke="#6C6CAA" stroke-linecap="round" stroke-linejoin="round" stroke-miterlimit="10" stroke-width="20.1764" x1="-245.185" x2="-245.185" y1="1661.181" y2="1660.981"/>

</g>

<g>

<path clip-rule="evenodd" d="    M-831.071,1836.053l-166.179-124.316c-9.802-7.345-11.917-21.263-4.658-30.979l0,0c7.23-9.688,21.205-11.603,31.036-4.23    l139.801,104.569V1836.053z" fill="#F5D8B3" fill-rule="evenodd" stroke="#6C6CAA" stroke-linecap="round" stroke-linejoin="round" stroke-miterlimit="10" stroke-width="20.1478"/>

<path clip-rule="evenodd" d="    M-592.618,1849.913v190.476c0,26.206-18.633,47.611-41.409,47.611h-354.563c-22.776,0-41.409-21.405-41.409-47.611v-190.476    h198.929v42.039c-7.858,5.916-12.945,15.289-12.945,25.892c0,17.862,14.489,32.352,32.35,32.352    c17.891,0,32.351-14.489,32.351-32.352c0-10.603-5.059-19.976-12.917-25.892v-42.039H-592.618z" fill="#F5D8B3" fill-rule="evenodd" stroke="#6C6CAA" stroke-linecap="round" stroke-linejoin="round" stroke-miterlimit="10" stroke-width="20.1478"/>

<path clip-rule="evenodd" d="    M-811.667,1615.027L-811.667,1615.027c10.688,0,19.434,8.745,19.434,19.405v257.521c7.858,5.916,12.917,15.289,12.917,25.892    c0,17.862-14.46,32.352-32.351,32.352c-17.86,0-32.35-14.489-32.35-32.352c0-10.603,5.087-19.976,12.945-25.892v-257.521    C-831.071,1623.771-822.325,1615.027-811.667,1615.027L-811.667,1615.027z" fill="#F9E5D3" fill-rule="evenodd" stroke="#6C6CAA" stroke-linecap="round" stroke-linejoin="round" stroke-miterlimit="10" stroke-width="20.1478"/>

<path clip-rule="evenodd" d="    M-787.146,1804.616h189.298c10.746,0,19.519,9.888,19.519,21.977l0,0c0,12.117-8.772,22.005-19.519,22.005h-189.298V1804.616z" fill="#F5D8B3" fill-rule="evenodd" stroke="#6C6CAA" stroke-linecap="round" stroke-linejoin="round" stroke-miterlimit="10" stroke-width="20.1478"/>

<line fill="none" stroke="#6C6CAA" stroke-linecap="round" stroke-linejoin="round" stroke-miterlimit="10" stroke-width="20.1478" x1="-792.233" x2="-591.961" y1="1886.122" y2="1886.122"/>

<line fill="none" stroke="#6C6CAA" stroke-linecap="round" stroke-linejoin="round" stroke-miterlimit="10" stroke-width="20.1478" x1="-961.413" x2="-835.243" y1="1886.122" y2="1886.122"/>

<line fill="none" stroke="#6C6CAA" stroke-linecap="round" stroke-linejoin="round" stroke-miterlimit="10" stroke-width="20.1478" x1="-1000.879" x2="-1000.879" y1="1888.294" y2="1888.065"/>

</g>

<g>

<path clip-rule="evenodd" d="M-1230.527,1785.697v102.196c0,38.152-46.01,69.36-102.251,69.36    h-18.861c-56.241,0-102.251-31.208-102.251-69.36v-102.196H-1230.527z" fill="#F5D8B3" fill-rule="evenodd"/>

<path clip-rule="evenodd" d="    M-1230.527,1645.748c32.321,0,58.527,26.207,58.527,58.529s-26.206,58.528-58.527,58.528v-58.528h-58.527    C-1289.055,1671.955-1262.849,1645.748-1230.527,1645.748L-1230.527,1645.748z" fill="#F9E5D3" fill-rule="evenodd" stroke="#6C6CAA" stroke-linecap="round" stroke-linejoin="round" stroke-miterlimit="10" stroke-width="20.1764"/>

<path clip-rule="evenodd" d="    M-1327.463,2046.333c46.096,1.485,81.246,9.23,81.246,18.576c0,10.402-43.58,18.833-97.335,18.833s-97.336-8.431-97.336-18.833    c0-9.603,37.151-17.548,85.161-18.69v-89.051c1.344,0.058,2.715,0.086,4.087,0.086h18.861c1.771,0,3.544-0.058,5.315-0.144    V2046.333z" fill="#FFFFFF" fill-rule="evenodd" stroke="#6C6CAA" stroke-linecap="round" stroke-linejoin="round" stroke-miterlimit="10" stroke-width="20.1764"/>

<path d="    M-1230.527,1704.277V1855c0,56.242-46.01,102.254-102.251,102.254h-18.861c-56.241,0-102.251-46.012-102.251-102.254v-150.723    H-1230.527z" fill="none" stroke="#6C6CAA" stroke-linecap="round" stroke-linejoin="round" stroke-miterlimit="10" stroke-width="20.1764"/>

<line fill="none" stroke="#6C6CAA" stroke-linecap="round" stroke-linejoin="round" stroke-miterlimit="10" stroke-width="20.1764" x1="-1229.67" x2="-1229.67" y1="1645.833" y2="1704.277"/>

<line fill="none" stroke="#6C6CAA" stroke-linecap="round" stroke-linejoin="round" stroke-miterlimit="10" stroke-width="20.1764" x1="-1229.384" x2="-1177.287" y1="1704.563" y2="1704.563"/>

<line fill="none" stroke="#6C6CAA" stroke-linecap="round" stroke-linejoin="round" stroke-miterlimit="10" stroke-width="20.1764" x1="-1229.498" x2="-1189.146" y1="1701.248" y2="1742.857"/>

<line fill="none" stroke="#6C6CAA" stroke-linecap="round" stroke-linejoin="round" stroke-miterlimit="10" stroke-width="20.1764" x1="-1185.374" x2="-1226.469" y1="1667.039" y2="1702.619"/>

<line fill="none" stroke="#6C6CAA" stroke-linecap="round" stroke-linejoin="round" stroke-miterlimit="10" stroke-width="20.1764" x1="-1268.879" x2="-1228.498" y1="1659.923" y2="1701.533"/>

<line fill="none" stroke="#6C6CAA" stroke-linecap="round" stroke-linejoin="round" stroke-miterlimit="10" stroke-width="20.1764" x1="-1453.891" x2="-1230.527" y1="1785.697" y2="1785.697"/>

<path clip-rule="evenodd" d="    M-1340.951,1931.561c8.858,0,16.089-7.23,16.089-16.118c0-8.859-7.23-16.09-16.089-16.09c-8.859,0-16.09,7.23-16.09,16.09    C-1357.041,1924.331-1349.811,1931.561-1340.951,1931.561L-1340.951,1931.561z" fill="#B0F0A8" fill-rule="evenodd" stroke="#6C6CAA" stroke-linecap="round" stroke-linejoin="round" stroke-miterlimit="10" stroke-width="20.1764"/>

<path clip-rule="evenodd" d="    M-1287.054,1890.637c8.459,0,15.346-6.888,15.346-15.347c0-8.46-6.887-15.347-15.346-15.347s-15.347,6.887-15.347,15.347    C-1302.4,1883.75-1295.513,1890.637-1287.054,1890.637L-1287.054,1890.637z" fill="#B0F0A8" fill-rule="evenodd" stroke="#6C6CAA" stroke-linecap="round" stroke-linejoin="round" stroke-miterlimit="10" stroke-width="20.1764"/>

<path clip-rule="evenodd" d="    M-1312.345,1840.596c6.858,0,12.46-5.601,12.46-12.46s-5.602-12.46-12.46-12.46c-6.888,0-12.46,5.602-12.46,12.46    S-1319.232,1840.596-1312.345,1840.596L-1312.345,1840.596z" fill="#B0F0A8" fill-rule="evenodd" stroke="#6C6CAA" stroke-linecap="round" stroke-linejoin="round" stroke-miterlimit="10" stroke-width="20.1764"/>

<polyline fill="none" points="    -1527.707,1625 -1412.682,1635.717 -1387.732,1783.468   " stroke="#6C6CAA" stroke-linecap="round" stroke-linejoin="round" stroke-miterlimit="10" stroke-width="20.1764"/>

</g>

<g>

<path d="    M-2017.308,1731.484c0.886-72.847,100.993-69.76,98.422,0v237.201" fill="none" stroke="#6C6CAA" stroke-linecap="round" stroke-linejoin="round" stroke-miterlimit="10" stroke-width="20.1478"/>

<path d="    M-1855.015,1731.484c0.857-72.847,100.993-69.76,98.422,0v237.201" fill="none" stroke="#6C6CAA" stroke-linecap="round" stroke-linejoin="round" stroke-miterlimit="10" stroke-width="20.1478"/>

<rect clip-rule="evenodd" fill="#F5D8B3" fill-rule="evenodd" height="32.379" stroke="#6C6CAA" stroke-linecap="round" stroke-linejoin="round" stroke-miterlimit="10" stroke-width="20.1478" width="162.293" x="-1918.886" y="1778.353"/>

<rect clip-rule="evenodd" fill="#F5D8B3" fill-rule="evenodd" height="32.38" stroke="#6C6CAA" stroke-linecap="round" stroke-linejoin="round" stroke-miterlimit="10" stroke-width="20.1478" width="162.293" x="-1918.886" y="1875.719"/>

<path d="    M-2087.208,1957.053c21.69-15.432,42.209-23.548,68.3-8.83c26.807,17.261,61.985,33.779,100.022,20.462    c37.78-18.176,55.354-25.692,77.674-9.06c24.034,17.376,51.954,21.034,84.619,9.06c38.465-17.147,71.387-28.264,99.593,1.058" fill="none" stroke="#6C6CAA" stroke-linecap="round" stroke-linejoin="round" stroke-miterlimit="10" stroke-width="20.1478"/>

<path d="    M-2031.367,2006.437c40.294,5.858,76.845,38.724,114.882,3.401c20.462-11.518,45.667-12.575,77.475,0.857    c30.435,14.975,56.927,17.118,78.303,2.571c18.918-14.889,46.353-14.061,69.786-1.714" fill="none" stroke="#6C6CAA" stroke-linecap="round" stroke-linejoin="round" stroke-miterlimit="10" stroke-width="20.1478"/>

<line fill="none" stroke="#6C6CAA" stroke-linecap="round" stroke-linejoin="round" stroke-miterlimit="10" stroke-width="20.1478" x1="-2066.689" x2="-2066.689" y1="1993.548" y2="1993.32"/>

</g>

</g>

</svg>